<?xml version="1.0" encoding="utf-8"?>
<!-- Generator: Adobe Illustrator 24.2.1, SVG Export Plug-In . SVG Version: 6.00 Build 0)  -->
<svg version="1.1" id="Layer_1" xmlns="http://www.w3.org/2000/svg" xmlns:xlink="http://www.w3.org/1999/xlink" x="0px" y="0px"
	 viewBox="0 0 612 792" style="enable-background:new 0 0 612 792;" xml:space="preserve">
<style type="text/css">
	.st0{fill:#82D0C3;}
	.st1{fill:#638488;}
	.st2{fill:#7C5781;}
	.st3{fill:#EE7C56;}
	.st4{fill:#EE7B55;}
	.st5{fill:#EE7B54;}
</style>
<g>
	<path class="st0" d="M361.68,517.36c-33.25,0-66.51,0-100.96,0c0-21.8,0-43.2,0-64.59c33.21,0,66.42,0,100.96,0
		C361.68,475.09,361.68,496.23,361.68,517.36z"/>
	<path class="st0" d="M245.23,426.97c0-6.88,0-13.1,0-20.07c49.49,0,98.74,0,148.69,0c0,6.44,0,12.88,0,20.07
		C344.78,426.97,295.52,426.97,245.23,426.97z"/>
	<path class="st1" d="M361.68,517.36c0-21.14,0-42.27,0-64.59c-34.54,0-67.75,0-100.96,0c0-5.02,0-10.04,0-15.56
		c40.08,0,79.68,0,119.78,0c0,26.58,0,52.79,0,80.14C374.28,517.36,367.98,517.36,361.68,517.36z"/>
	<path class="st2" d="M334.19,355.22c7.76,4.55,16.48,8.08,15.23,17.58c-1.29,9.78-9.62,15.01-18.69,17.57
		c-9.46,2.66-19.55,3.61-29.45,4.63c-6.78,0.7-10.24-3.07-10.02-9.3c0.77-22.43,1.36-44.88,2.83-67.28
		c0.18-2.83,4.68-6.97,7.95-7.75c5.75-1.37,12.41-1.82,18.14-0.56C342.91,315.15,353.18,335.44,334.19,355.22z M304.91,349.97
		c10.73,1.4,20.16,0.13,24.86-8.76c1.93-3.66,1.46-10.44-1.08-13.67c-5.46-6.95-14.05-8.42-23.78-5.84
		C304.91,331.1,304.91,340.21,304.91,349.97z M338.6,371.12c-11.16-7.63-22.33-10.38-35.09-8.75c0,7.27,0,13.98,0,21.24
		C316.67,383.02,328.91,382.18,338.6,371.12z"/>
	<path class="st3" d="M301.99,299.17c-7.45,6.09-14.19,12.09-21.48,17.45c-7.14,5.25-18.61,3.08-26.95-4.48
		c-7.64-6.92-8.5-18.4-2.84-27.05c7.12-10.86,26.43-14.77,35.9-2.7C291.13,288.14,296.55,293.29,301.99,299.17z"/>
	<path class="st4" d="M325.02,300.01c4.59-6.6,8.46-12.08,12.25-17.62c6.73-9.86,19.55-12.55,30.89-6.43
		c10.87,5.86,14.76,19.03,8.72,29.54c-5.85,10.18-18.13,13.79-29.56,7.98C339.77,309.65,332.85,304.79,325.02,300.01z"/>
	<path class="st5" d="M313,291.28c-7-5.99-15.5-10.93-20.13-18.02c-3.18-4.87-2.35-13.02-0.88-19.21
		c1.88-7.91,9.33-11.94,17.78-12.95c10.27-1.22,20.39,3.85,24.39,11.36c4.46,8.37,2.88,16.67-5.03,24.33
		C324.22,281.54,318.95,285.96,313,291.28z"/>
</g>
</svg>
