<?xml version="1.0" encoding="utf-8"?>
<!-- Generator: Adobe Illustrator 24.2.1, SVG Export Plug-In . SVG Version: 6.00 Build 0)  -->
<svg version="1.1" id="Layer_1" xmlns="http://www.w3.org/2000/svg" xmlns:xlink="http://www.w3.org/1999/xlink" x="0px" y="0px"
	 viewBox="0 0 612 792" style="enable-background:new 0 0 612 792;" xml:space="preserve">
<style type="text/css">
	.st0{fill:#83D0C3;}
	.st1{fill:#638488;}
	.st2{fill:#EF7951;}
	.st3{fill:#78527D;}
</style>
<g>
	<path class="st0" d="M321.41,440.57c-9.66,0.03-19.33,0.03-28.99,0.12c-1.68,0.02-2.26-0.51-2.23-2.21
		c0.1-6.48,0.09-12.96,0.12-19.44c1.05-1,2.38-0.91,3.67-0.92c7.87-0.04,15.74-0.06,23.61,0c4.01,0.03,4.7,0.73,4.75,4.72
		c0.06,4.68,0.04,9.37,0,14.05C322.32,438.18,322.41,439.52,321.41,440.57z"/>
	<path class="st0" d="M308.47,410.69c-6.28,0-12.56,0.03-18.84-0.01c-4.71-0.03-4.01,0.65-4.25-4.06c-0.12-2.46,0.56-3.32,3.11-3.18
		c3.87,0.22,7.77,0.06,11.66,0.06c9.57,0,19.14,0.14,28.7-0.08c3.43-0.08,2.61,1.99,2.71,3.85c0.11,2,0.24,3.6-2.77,3.49
		C322.03,410.53,315.25,410.69,308.47,410.69z"/>
	<path class="st1" d="M321.41,440.57c-0.01-6.28-0.11-12.56,0.01-18.84c0.04-2.11-0.64-2.71-2.71-2.69
		c-9.46,0.08-18.93,0.02-28.39,0c-0.24-5.36-0.24-5.35,5.14-5.35c9.77,0,19.54,0.06,29.31-0.05c2.09-0.02,2.7,0.53,2.66,2.65
		c-0.13,7.08-0.21,14.17,0.03,21.25c0.09,2.8-0.86,3.51-3.35,3.15C323.22,440.54,322.31,440.6,321.41,440.57z"/>
	<path class="st2" d="M293.18,374.38c-2.84-0.18-5.14-1.45-6.36-4.01c-1.4-2.93-0.92-5.78,1.26-8.27c1.99-2.27,4.54-2.9,7.25-1.9
		c3.42,1.28,4.86,4.79,7.28,7.21c0.1,0.1,0.06,0.38,0.02,0.55C302.24,369.64,295.11,374.45,293.18,374.38z"/>
	<path class="st3" d="M308.27,384.13c0.23,4.67,0.47,9.33,0.69,14c0.03,0.68,0.05,1.39-0.06,2.06c-0.18,1.12-0.51,2.25-2,2.08
		c-1.37-0.16-1.73-1.17-1.69-2.38c0.18-5.18-0.38-10.34-0.68-15.5c-0.25-4.43-0.26-4.43-4.61-4.77c-0.99-0.08-2-0.1-2.96-0.33
		c-0.99-0.24-1.93-0.73-1.73-2.02c0.18-1.15,1.1-1.9,2.09-1.74c6.42,1.04,12.93-0.16,19.35,0.86c1.21,0.19,2.25,0.51,2.16,1.89
		c-0.08,1.31-1.11,1.85-2.32,1.81c-1.69-0.04-3.42,0.02-5.05-0.36c-2.95-0.68-3.79,0.5-3.34,3.21c0.06,0.39,0.06,0.79,0.09,1.19
		C308.24,384.13,308.26,384.13,308.27,384.13z"/>
	<path class="st2" d="M326.84,366.27c-0.02,5.59-5.07,8.71-9.69,6.4c-0.62-0.31-1.22-0.66-1.77-1.08c-1.65-1.24-5.03-2.41-4.7-3.59
		c0.78-2.81,2.63-5.62,4.77-7.68c1.99-1.92,5-1.7,7.58-0.45C325.85,361.23,326.97,363.63,326.84,366.27z"/>
	<path class="st2" d="M313.5,355.99c0.36,1.53-0.65,2.77-1.69,4.01c-4.9,5.87-4.89,5.87-10.37,0.81c-2.62-2.42-3.09-4.64-1.66-7.94
		c1.33-3.07,4.63-4.75,7.99-4.07C311.35,349.53,313.52,352.15,313.5,355.99z"/>
</g>
</svg>
